PathFileType	3	(X/Y/Z)	F:\ViconData\AntennenMessung\Messung1\Session1\ID23.trc
DataRate	CameraRate	NumFrames	NumMarkers	Units	OrigDataRate	OrigDataStartFrame	OrigNumFrames
120.0	120.0	5	70	mm	120.0	251	1000	
Frame#	Time	Ashort			Along			Atop			A4			Bshort			Blong			Btop			B4			Cshort			Clong			Ctop			C4			Dshort			Dlong			Dtop			D4			Eshort			Elong			Etop			E4			Fshort			Flong			Ftop			F4			Gshort			Glong			Gtop			G4			Hshort			Hlong			Htop			H4			I1			I2			I3			I4			I5			WandAshort			WandAlong			WandAtop			WandA4			WandA15			WandBshort			WandB4			WandB5			WandBtop			WandBlong			WandCshort			WandClong			WandCtop			WandC4			WandC5			Acenter			Aantenna			Bcenter			Bantenna			Ccenter			Cantenna			Dcenter			Dantenna			Ecenter			Eantenna			Fcenter			Fantenna			Gcenter			Gantenna			Hcenter			Hantenna			Icenter			Iantenna			
		X1	Y1	Z1	X2	Y2	Z2	X3	Y3	Z3	X4	Y4	Z4	X5	Y5	Z5	X6	Y6	Z6	X7	Y7	Z7	X8	Y8	Z8	X9	Y9	Z9	X10	Y10	Z10	X11	Y11	Z11	X12	Y12	Z12	X13	Y13	Z13	X14	Y14	Z14	X15	Y15	Z15	X16	Y16	Z16	X17	Y17	Z17	X18	Y18	Z18	X19	Y19	Z19	X20	Y20	Z20	X21	Y21	Z21	X22	Y22	Z22	X23	Y23	Z23	X24	Y24	Z24	X25	Y25	Z25	X26	Y26	Z26	X27	Y27	Z27	X28	Y28	Z28	X29	Y29	Z29	X30	Y30	Z30	X31	Y31	Z31	X32	Y32	Z32	X33	Y33	Z33	X34	Y34	Z34	X35	Y35	Z35	X36	Y36	Z36	X37	Y37	Z37	X38	Y38	Z38	X39	Y39	Z39	X40	Y40	Z40	X41	Y41	Z41	X42	Y42	Z42	X43	Y43	Z43	X44	Y44	Z44	X45	Y45	Z45	X46	Y46	Z46	X47	Y47	Z47	X48	Y48	Z48	X49	Y49	Z49	X50	Y50	Z50	X51	Y51	Z51	X52	Y52	Z52	X53	Y53	Z53	X54	Y54	Z54	X55	Y55	Z55	X56	Y56	Z56	X57	Y57	Z57	X58	Y58	Z58	X59	Y59	Z59	X60	Y60	Z60	X61	Y61	Z61	X62	Y62	Z62	X63	Y63	Z63	X64	Y64	Z64	X65	Y65	Z65	X66	Y66	Z66	X67	Y67	Z67	X68	Y68	Z68	X69	Y69	Z69	X70	Y70	Z70	
251	2.0833333	-1038.1638	214.53596	-1643.9384	-1109.5873	204.07906	-1599.4999	-1063.6113	172.9729	-1625.7842	-1054.0892	262.37384	-1634.8195	-1352.6128	235.24928	1003.3904	-1281.3225	227.43121	1052.0509	-1322.4912	194.07803	1020.8735	-1284.3281	288.03036	1052.5227	814.05237	187.72615	1209.4196	892.31598	178.66263	1178.875	844.60248	145.37283	1198.3947	861.01642	292.44464	1168.447	1115.8054	209.76025	-1401.6567	1056.3351	194.13605	-1460.2599	1094.9404	162.12485	-1423.7823	1069.6926	239.55957	-1426.286	-1204.6698	1686.0862	-1562.9241	-1129.1023	1688.3921	-1605.9604	-1173.1456	1724.3732	-1581.865	-1134.0051	1581.0845	-1603.8746	-1239.5527	1699.0533	1119.5498	-1308.4816	1699.5131	1070.2949	-1270.3419	1736.2271	1096.9347	-1245.4978	1592.6136	1110.6948	988.86627	1664.1665	1162.0919	957.31	1700.4801	1183.8754	921.90955	1662.2887	1214.9565	939.8006	1659.429	1159.7705	999.08624	1668.4656	-1579.4144	1058.9421	1670.1823	-1518.684	1025.0178	1708.1074	-1551.1433	1059.3301	1672.192	-1585.4165	-231.39709	1638.8971	-185.83156	-228.90627	1638.3566	-270.26416	-229.70958	1675.4752	-223.71422	-196.28401	1638.5181	-221.52284	-278.76883	1639.9305	-223.91673																																														-1068.5695	210.08435	-1625.0204	-1073.733	248.73283	-1624.225	-1321.1023	231.79366	1024.8984	-1319.6752	270.54752	1029.0342	848.15778	183.77647	1196.1089	851.7467	222.54239	1193.8015	1088.756	202.65376	-1428.3116	1082.9086	240.97432	-1432.5942	-1171.8618	1687.0872	-1581.6084	-1170.5198	1648.1112	-1581.3405	-1270.7954	1699.2616	1097.2245	-1271.274	1660.2656	1097.5303	952.70166	1705.783	1187.0563	972.66583	1733.9827	1168.9674	1026.5471	1669.2531	-1551.5521	1028.0808	1630.2854	-1551.9625	-230.28596	1638.6559	-223.4955	-230.89641	1599.6614	-223.26385
252	2.0916667	-1038.1685	214.61797	-1644.0084	-1109.5563	203.98137	-1599.4684	-1063.946	173.0116	-1625.5107	-1054.1051	262.336	-1634.8853	-1352.5123	235.31747	1003.3381	-1281.3033	227.46854	1052.1198	-1322.506	194.05278	1020.8813	-1284.4532	287.97043	1052.613	814.04437	187.74426	1209.3774	892.69147	179.31738	1178.4607	844.56097	145.36618	1198.4171	861.01428	292.56	1168.4159	1115.8163	209.76765	-1401.6532	1056.3318	194.11481	-1460.2614	1095.037	162.21075	-1423.7639	1069.6879	239.55519	-1426.2648	-1204.6804	1686.09	-1562.9127	-1129.1364	1688.3832	-1605.9426	-1173.1494	1724.3585	-1581.8552	-1134.0094	1581.0842	-1603.8721	-1239.557	1699.0509	1119.5524	-1308.558	1699.5657	1070.6062	-1270.3828	1736.2965	1096.953	-1245.5245	1592.6898	1110.7206	988.86603	1664.1813	1162.1183	957.34302	1700.433	1183.9529	922.00629	1662.2521	1214.9547	939.80701	1659.4357	1159.677	999.08545	1668.4573	-1579.415	1058.9395	1670.1849	-1518.6843	1025.0155	1708.0956	-1551.1388	1059.3289	1672.1995	-1585.4249	-231.38152	1638.9015	-185.82811	-228.90706	1638.3518	-270.2612	-229.71727	1675.4673	-223.70053	-196.24327	1638.5245	-221.50319	-278.7518	1639.9153	-223.90321																																														-1068.9999	210.02415	-1624.7721	-1074.2753	248.65802	-1624.0011	-1321.0748	231.85229	1024.8743	-1319.6075	270.60904	1028.9683	847.80542	184.12683	1196.1056	851.05286	222.92245	1193.7922	1088.8169	202.66302	-1428.2546	1082.9252	240.98003	-1432.5082	-1171.8726	1687.0858	-1581.6	-1170.5375	1648.1096	-1581.333	-1270.9122	1699.2847	1097.3103	-1271.4703	1660.2905	1097.6869	952.73907	1705.7275	1187.1417	972.69275	1733.9547	1169.084	1026.5511	1669.25	-1551.547	1028.0917	1630.2826	-1551.9568	-230.27814	1638.6562	-223.47731	-230.8723	1599.6615	-223.24084
253	2.1	-1038.1801	214.64227	-1644.0175	-1109.5334	204.02277	-1599.4723	-1063.5874	172.95076	-1625.7765	-1054.1321	262.33231	-1634.8865	-1352.5697	235.17699	1003.3926	-1281.3137	227.54118	1052.1663	-1322.5201	194.02965	1020.8624	-1284.2903	288.0618	1052.511	814.08472	187.59583	1209.4414	892.33911	178.76331	1178.819	844.59198	145.31783	1198.3773	861.04346	292.54199	1168.4535	1115.822	209.77531	-1401.6708	1056.328	194.09282	-1460.272	1094.9207	162.14345	-1423.7791	1069.6671	239.56766	-1426.2811	-1204.6902	1686.0883	-1562.8839	-1129.1339	1688.3605	-1605.9276	-1173.1448	1724.3613	-1581.8669	-1133.9955	1581.093	-1603.899	-1239.5402	1699.0441	1119.5507	-1308.4445	1699.599	1070.2128	-1270.3833	1736.2805	1096.9486	-1245.5215	1592.7159	1110.7275	988.82574	1664.1622	1162.1068	957.30664	1700.4791	1183.8684	921.84637	1662.2512	1214.906	939.77972	1659.3696	1159.7388	999.08282	1668.457	-1579.4026	1058.9557	1670.1952	-1518.6813	1025.019	1708.1078	-1551.1462	1059.3248	1672.1893	-1585.4226	-231.39337	1638.8931	-185.83971	-228.90465	1638.351	-270.26865	-229.72479	1675.4742	-223.71248	-196.24997	1638.5298	-221.50343	-278.74628	1639.9109	-223.90927																																														-1068.6356	210.10956	-1625.0042	-1073.8846	248.74637	-1624.2012	-1321.207	231.81615	1024.8597	-1319.8601	270.5766	1028.9602	848.05817	183.76126	1196.1469	851.55457	222.53899	1193.897	1088.7427	202.63725	-1428.3436	1082.897	240.95398	-1432.663	-1171.8629	1687.0753	-1581.5852	-1170.5231	1648.0995	-1581.2906	-1270.8251	1699.296	1097.1495	-1271.2908	1660.2994	1097.3615	952.72705	1705.7557	1187.0302	972.73486	1733.9425	1168.9694	1026.5513	1669.2544	-1551.5448	1028.088	1630.2867	-1551.9445	-230.28345	1638.6512	-223.49245	-230.87509	1599.6565	-223.25943
254	2.1083333	-1038.173	214.58211	-1643.9716	-1109.5389	204.05127	-1599.4958	-1063.6182	172.93575	-1625.772	-1054.1572	262.49567	-1635.0903	-1352.5797	235.18602	1003.3892	-1281.4143	227.31248	1052.1912	-1322.4973	194.04166	1020.885	-1284.4089	287.9722	1052.5952	814.03186	187.7278	1209.4773	892.28381	178.66702	1178.8524	844.5531	145.31776	1198.4221	860.98047	292.48251	1168.3223	1115.8719	210.05573	-1401.8395	1056.3229	194.1188	-1460.2526	1094.9786	162.19608	-1423.7734	1069.6805	239.56516	-1426.2622	-1204.7051	1686.0969	-1562.8601	-1129.1564	1688.3418	-1605.8881	-1173.1465	1724.3528	-1581.8676	-1133.9938	1581.0819	-1603.8925	-1239.5392	1699.0531	1119.5599	-1308.4756	1699.5012	1070.4674	-1270.424	1736.3138	1096.9725	-1245.5282	1592.6849	1110.7229	988.8808	1664.1973	1162.0808	957.349	1700.4379	1183.921	922.02124	1662.2118	1214.9445	939.82098	1659.4348	1159.7233	999.07434	1668.4602	-1579.4169	1058.9435	1670.1851	-1518.688	1025.02	1708.0972	-1551.1442	1059.3285	1672.1936	-1585.4167	-231.38519	1638.9045	-185.82944	-228.90468	1638.3546	-270.26517	-229.71341	1675.4714	-223.71101	-196.31171	1638.499	-221.56044	-278.77371	1639.9332	-223.91556																																														-1068.6182	210.08955	-1624.9977	-1073.8186	248.73288	-1624.1926	-1321.1244	231.70592	1024.9596	-1319.712	270.45422	1029.1516	848.11334	183.78149	1196.139	851.7016	222.54785	1193.8381	1088.7225	202.78983	-1428.4708	1082.8207	241.08511	-1432.9023	-1171.8655	1687.0726	-1581.5635	-1170.5262	1648.0969	-1581.2455	-1270.864	1699.2567	1097.252	-1271.327	1660.2605	1097.5463	952.74976	1705.7239	1187.1064	972.6886	1733.9579	1169.0432	1026.5486	1669.2518	-1551.5479	1028.0823	1630.2841	-1551.953	-230.27887	1638.6592	-223.48785	-230.87787	1599.6646	-223.25148
255	2.1166667	-1038.1772	214.56677	-1643.9581	-1109.4467	204.3481	-1599.3425	-1063.9629	173.0056	-1625.4657	-1054.1184	262.38303	-1634.8546	-1352.574	235.20648	1003.4015	-1281.2611	227.53973	1052.1029	-1322.5171	194.04446	1020.8565	-1284.4907	287.92905	1052.6477	814.02252	187.69655	1209.3746	892.63751	179.24693	1178.4487	844.55505	145.30173	1198.4769	860.98657	292.53357	1168.342	1115.8329	209.77922	-1401.6812	1056.337	194.20044	-1460.2632	1094.9894	162.16946	-1423.7855	1069.7002	239.57097	-1426.2635	-1204.696	1686.1113	-1562.8652	-1129.1409	1688.3544	-1605.9165	-1173.1515	1724.3545	-1581.8523	-1133.9888	1581.0732	-1603.8939	-1239.5419	1699.0504	1119.5525	-1308.4271	1699.5659	1070.2181	-1270.3889	1736.2726	1096.9518	-1245.517	1592.6772	1110.7122	988.84021	1664.1626	1162.1179	957.38104	1700.443	1183.842	921.8797	1662.2504	1214.9501	939.80743	1659.4122	1159.746	999.07025	1668.453	-1579.4039	1058.9392	1670.1815	-1518.6791	1025.0032	1708.0983	-1551.153	1059.3251	1672.1902	-1585.423	-231.37251	1638.913	-185.81667	-228.9028	1638.3539	-270.27158	-229.72025	1675.4686	-223.70894	-196.24924	1638.5242	-221.52435	-278.76553	1639.9426	-223.91838																																														-1068.8481	210.16914	-1624.7577	-1073.9303	248.82957	-1624.021	-1321.1771	231.83104	1024.8431	-1319.8029	270.59171	1028.9326	847.78406	184.06781	1196.0933	851.01526	222.86047	1193.7081	1088.8099	202.70337	-1428.2889	1082.9674	241.02745	-1432.5469	-1171.8805	1687.0854	-1581.5635	-1170.5513	1648.1093	-1581.2612	-1270.8126	1699.2843	1097.1569	-1271.2593	1660.2875	1097.3732	952.77191	1705.7585	1187.0248	972.77673	1733.933	1168.9415	1026.5297	1669.2457	-1551.5518	1028.0605	1630.2777	-1551.952	-230.27107	1638.6636	-223.4814	-230.85468	1599.6686	-223.24033
